<svg xmlns="http://www.w3.org/2000/svg" width="1200" height="680" viewBox="0 0 1200 680">
  <rect width="1200" height="680" fill="#edf3f6"/><rect x="28" y="28" width="1144" height="624" rx="8" fill="#fff" stroke="#b8c8d2" stroke-width="2"/>
  <g font-family="Arial,'Microsoft YaHei',sans-serif"><text x="65" y="82" font-size="30" font-weight="700" fill="#15364b">独立验证闭环：不要用建模所依赖的数据证明模型正确</text><text x="65" y="112" font-size="15" fill="#607583">Independent evidence reduces circular validation in reverse-engineered CAD</text>
  <g transform="translate(75 210)" text-anchor="middle"><g fill="#d9edf3" stroke="#2f6f8f" stroke-width="3"><rect width="190" height="120" rx="8"/><rect x="230" width="190" height="120" rx="8"/><rect x="460" width="190" height="120" rx="8"/></g><rect x="690" width="190" height="120" rx="8" fill="#dff0e5" stroke="#4b8b69" stroke-width="3"/><rect x="920" width="190" height="120" rx="8" fill="#efe7f4" stroke="#6f5a91" stroke-width="3"/>
  <g font-size="17" font-weight="700" fill="#15364b"><text x="95" y="48">采集 A</text><text x="325" y="48">特征建模</text><text x="555" y="48">冻结 CAD</text><text x="785" y="38">独立证据 B</text><text x="1015" y="38">偏差与功能</text></g><g font-size="14" fill="#36596c"><text x="95" y="82">建模数据</text><text x="325" y="82">参数与约束</text><text x="555" y="82">受控版本</text><text x="785" y="73">复扫 / 留出特征</text><text x="785" y="96">配合与工程审查</text><text x="1015" y="73">联合判定</text><text x="1015" y="96">发布或返工</text></g>
  <g stroke="#2f6f8f" stroke-width="5" fill="none"><path d="M190 60 H225 M420 60 H455 M650 60 H685 M880 60 H915"/><path d="M215 48 L230 60 215 72 M445 48 L460 60 445 72 M675 48 L690 60 675 72 M905 48 L920 60 905 72"/></g></g>
  <path d="M1090 350 C1090 525 540 535 315 355" fill="none" stroke="#d08a2e" stroke-width="4" stroke-dasharray="12 8"/><path d="M330 350 L310 355 318 375" fill="none" stroke="#d08a2e" stroke-width="4"/><text x="700" y="515" text-anchor="middle" font-size="16" fill="#8a5a22">证据不一致时回到基准、特征与假设层定位原因</text><text x="600" y="620" text-anchor="middle" font-size="13" fill="#607583">闭环为质量治理示意，验收规则应由具体项目定义 / Conceptual verification loop</text></g>
</svg>

